<mxfile host="65bd71144e">
    <diagram name="Seite-1" id="7PXLoONtQBVVqUtS3sIZ">
        <mxGraphModel dx="507" dy="876" grid="1" gridSize="10" guides="1" tooltips="1" connect="1" arrows="1" fold="1" page="1" pageScale="1" pageWidth="827" pageHeight="1169" math="0" shadow="0">
            <root>
                <mxCell id="0"/>
                <mxCell id="1" parent="0"/>
                <mxCell id="0uPD2-q82YcFwM2yU2tX-1" value="D" style="rounded=1;whiteSpace=wrap;html=1;fontFamily=Alegreya;fontSource=https%3A%2F%2Ffonts.googleapis.com%2Fcss%3Ffamily%3DAlegreya;" parent="1" vertex="1">
                    <mxGeometry x="120" y="180" width="30" height="30" as="geometry"/>
                </mxCell>
                <mxCell id="0uPD2-q82YcFwM2yU2tX-3" value="E" style="rounded=1;whiteSpace=wrap;html=1;fontFamily=Alegreya;fontSource=https%3A%2F%2Ffonts.googleapis.com%2Fcss%3Ffamily%3DAlegreya;" parent="1" vertex="1">
                    <mxGeometry x="270" y="290" width="30" height="30" as="geometry"/>
                </mxCell>
                <mxCell id="0uPD2-q82YcFwM2yU2tX-4" value="P" style="rounded=1;whiteSpace=wrap;html=1;fontFamily=Alegreya;fontSource=https%3A%2F%2Ffonts.googleapis.com%2Fcss%3Ffamily%3DAlegreya;" parent="1" vertex="1">
                    <mxGeometry x="120" y="35.5" width="30" height="30" as="geometry"/>
                </mxCell>
                <mxCell id="0uPD2-q82YcFwM2yU2tX-5" value="V" style="rounded=1;whiteSpace=wrap;html=1;fontFamily=Alegreya;fontSource=https%3A%2F%2Ffonts.googleapis.com%2Fcss%3Ffamily%3DAlegreya;" parent="1" vertex="1">
                    <mxGeometry x="270" y="180" width="30" height="30" as="geometry"/>
                </mxCell>
                <mxCell id="0uPD2-q82YcFwM2yU2tX-6" value="R" style="rounded=1;whiteSpace=wrap;html=1;fontFamily=Alegreya;fontSource=https%3A%2F%2Ffonts.googleapis.com%2Fcss%3Ffamily%3DAlegreya;" parent="1" vertex="1">
                    <mxGeometry x="320" y="80" width="30" height="30" as="geometry"/>
                </mxCell>
                <mxCell id="0uPD2-q82YcFwM2yU2tX-7" value="S" style="rounded=1;whiteSpace=wrap;html=1;fontFamily=Alegreya;fontSource=https%3A%2F%2Ffonts.googleapis.com%2Fcss%3Ffamily%3DAlegreya;" parent="1" vertex="1">
                    <mxGeometry x="270" y="35.5" width="30" height="30" as="geometry"/>
                </mxCell>
                <mxCell id="0uPD2-q82YcFwM2yU2tX-8" value="T" style="rounded=1;whiteSpace=wrap;html=1;fontFamily=Alegreya;fontSource=https%3A%2F%2Ffonts.googleapis.com%2Fcss%3Ffamily%3DAlegreya;" parent="1" vertex="1">
                    <mxGeometry x="430" y="35.5" width="30" height="30" as="geometry"/>
                </mxCell>
            </root>
        </mxGraphModel>
    </diagram>
</mxfile>
